#!OML:ASF I:\Actors\actors\Patient Classification 1\Patient 1\Session 1\Subject1.ASF
:FULLY-SPECIFIED
:DEGREES
705
root -1.20635 17.636 8.28844 13.9973 2.43694 -7.379
lowerback 5.4884 2.84717 11.2686
upperback -9.87872 5.52739 2.02133
thorax -13.221 1.63707 -4.91112
lowerneck -7.98862 -14.3792 -9.67682
upperneck 7.91183 -18.9408 6.91823
head 5.22756 -9.23856 2.08423
rclavicle 1.39149e-014 -1.47101e-014
rhumerus 47.1573 -23.9815 -52.6747
rradius 39.216
rwrist 42.967
rhand -17.9468 -43.5617
rfingers 7.12502
rthumb 8.32168 -73.3778
lclavicle 1.39149e-014 -1.47101e-014
lhumerus -48.6431 -13.1953 91.2051
lradius 69.2003
lwrist 11.8623
lhand -26.466 -22.17
lfingers 7.12502
lthumb 0.0956731 7.80968
rfemur -6.39552 25.0352 24.2429
rtibia -0.595327
rfoot -11.8912 -28.6821
rtoes 6.70923
lfemur 1.29166 -62.3791 -8.03275
ltibia -3.44697
lfoot -57.0944 61.5382
ltoes 25.7156
706
root -1.21746 17.6364 8.29362 13.981 2.2479 -7.3776
lowerback 5.9208 2.83528 10.8219
upperback -10.2247 5.57935 2.18272
thorax -13.9515 1.66043 -4.53825
lowerneck -7.6898 -14.3139 -9.76611
upperneck 8.34592 -18.87 6.66181
head 5.2922 -9.22563 2.03532
rclavicle 1.8487e-014 -1.86858e-014
rhumerus 47.0245 -23.4699 -52.5121
rradius 38.3158
rwrist 41.6884
rhand -13.7879 -42.4373
rfingers 7.12502
rthumb 12.3336 -72.0535
lclavicle 1.8487e-014 -1.86858e-014
lhumerus -49.2069 -12.8215 91.499
lradius 69.2301
lwrist 11.7359
lhand -26.4066 -22.1099
lfingers 7.12502
lthumb 0.153069 7.86976
rfemur -6.33445 25.1313 24.3028
rtibia -0.568219
rfoot -11.9879 -28.5777
rtoes 7.36757
lfemur 1.33131 -61.7058 -8.05296
ltibia -3.51007
lfoot -56.3501 61.2245
ltoes 25.7988
707
root -1.22857 17.6347 8.30006 13.9647 2.12381 -7.37433
lowerback 5.82417 2.87433 10.6199
upperback -10.228 5.59349 2.19246
thorax -13.9039 1.69278 -4.41274
lowerneck -7.85071 -14.3735 -9.65188
upperneck 8.73692 -18.9481 6.44056
head 5.41377 -9.26499 1.92198
rclavicle 5.86415e-015 -1.31198e-014
rhumerus 46.9315 -23.4669 -52.7874
rradius 37.9651
rwrist 40.1939
rhand -12.4787 -41.9107
rfingers 7.12502
rthumb 13.5957 -71.4468
lclavicle 5.86415e-015 -1.31198e-014
lhumerus -49.1772 -12.8324 91.6185
lradius 69.2889
lwrist 11.7612
lhand -26.358 -22.2596
lfingers 7.12502
lthumb 0.199937 7.72009
rfemur -6.28793 25.1228 24.3585
rtibia -0.569644
rfoot -11.9496 -28.4711
rtoes 7.41472
lfemur 1.35165 -61.1491 -8.06231
ltibia -3.5469
lfoot -55.4029 61.1293
ltoes 25.3696
708
root -1.23887 17.633 8.30606 13.8896 2.11973 -7.48164
lowerback 5.28197 2.93125 10.8371
upperback -9.86186 5.56269 2.07988
thorax -13.0942 1.71122 -4.60084
lowerneck -8.35802 -14.5397 -9.49717
upperneck 8.88288 -19.1673 6.53762
head 5.55364 -9.34499 1.862
rclavicle 1.78906e-014 -1.55052e-014
rhumerus 47.0004 -24.0373 -53.5481
rradius 38.3836
rwrist 39.7689
rhand -12.843 -42.0506
rfingers 7.12502
rthumb 13.2445 -71.6098
lclavicle 1.78906e-014 -1.55052e-014
lhumerus -48.5031 -13.1904 91.5084
lradius 69.348
lwrist 11.9273
lhand -26.306 -22.3288
lfingers 7.12502
lthumb 0.250161 7.65079
rfemur -6.19449 24.9316 24.5808
rtibia -0.565611
rfoot -11.8042 -28.2943
rtoes 7.00574
lfemur 1.49934 -60.9286 -8.05317
ltibia -3.53171
lfoot -54.9917 61.0809
ltoes 25.1257
709
root -1.24799 17.631 8.31266 13.7573 2.20217 -7.63768
lowerback 5.02496 2.9188 11.0084
upperback -9.65902 5.50485 2.0801
thorax -12.6884 1.69907 -4.66134
lowerneck -8.70916 -14.6746 -9.49169
upperneck 9.17677 -19.3375 6.52311
head 5.714 -9.41461 1.7993
rclavicle 2.39536e-014 -2.82274e-014
rhumerus 46.652 -24.2667 -53.9234
rradius 39.3087
rwrist 39.8252
rhand -13.6837 -42.6805
rfingers 7.12502
rthumb 12.434 -72.2907
lclavicle 2.39536e-014 -2.82274e-014
lhumerus -48.2218 -13.4001 91.5572
lradius 69.4372
lwrist 11.9945
lhand -26.2539 -22.1185
lfingers 7.12502
lthumb 0.30049 7.86104
rfemur -6.02314 24.674 24.896
rtibia -0.55314
rfoot -11.7316 -28.1064
rtoes 6.78506
lfemur 1.72592 -60.7266 -8.04838
ltibia -3.5228
lfoot -54.5052 60.9769
ltoes 25.0219
710
root -1.25637 17.6276 8.31981 13.6317 2.2784 -7.72615
lowerback 5.2984 2.83153 10.842
upperback -9.84119 5.44739 2.24606
thorax -13.1162 1.66574 -4.40537
lowerneck -8.67779 -14.6521 -9.71625
upperneck 9.69252 -19.3002 6.39004
head 5.87716 -9.40722 1.7753
rclavicle 4.92986e-014 -1.70955e-014
rhumerus 45.8173 -23.7833 -53.57
rradius 40.1921
rwrist 39.3149
rhand -15.1535 -43.3664
rfingers 7.12502
rthumb 11.0167 -73.0574
lclavicle 4.92986e-014 -1.70955e-014
lhumerus -48.7459 -13.2932 91.8982
lradius 69.5567
lwrist 11.9242
lhand -26.1058 -21.9081
lfingers 7.12502
lthumb 0.443586 8.0712
rfemur -5.85304 24.419 25.1135
rtibia -0.549492
rfoot -11.7398 -27.9013
rtoes 6.65651
lfemur 2.05947 -60.7733 -8.207
ltibia -3.52526
lfoot -54.4565 60.9853
ltoes 24.881
711
root -1.26385 17.6234 8.3259 13.5417 2.29863 -7.7726
lowerback 5.8674 2.72127 10.5167
upperback -10.2197 5.41395 2.48951
thorax -13.9882 1.63461 -4.00314
lowerneck -8.21772 -14.5522 -9.784
upperneck 9.69219 -19.1512 6.0303
head 5.76035 -9.37341 1.73238
rclavicle -1.28216e-014 -1.86858e-014
rhumerus 44.9388 -22.9585 -52.8828
rradius 40.7231
rwrist 38.8881
rhand -17.511 -44.1153
rfingers 7.12502
rthumb 8.74224 -73.9142
lclavicle -1.28216e-014 -1.86858e-014
lhumerus -49.662 -13.0349 92.361
lradius 69.6584
lwrist 11.8464
lhand -26.033 -21.9224
lfingers 7.12502
lthumb 0.513912 8.05675
rfemur -5.77354 24.0458 25.2268
rtibia -0.499488
rfoot -11.7319 -27.481
rtoes 6.52759
lfemur 2.52058 -61.2293 -8.53838
ltibia -3.49559
lfoot -55.3542 61.1439
ltoes 24.9763
712
root -1.26837 17.6201 8.33135 13.5217 2.34508 -7.79596
lowerback 6.12649 2.64752 10.3938
upperback -10.431 5.3787 2.63911
thorax -14.4437 1.60874 -3.78615
lowerneck -7.85154 -14.4752 -9.923
upperneck 9.49322 -19.0375 5.92038
head 5.63148 -9.34137 1.76636
rclavicle -2.59911e-014 -7.95139e-016
rhumerus 44.6693 -22.6422 -52.6862
rradius 40.6405
rwrist 39.7401
rhand -20.8683 -45.5174
rfingers 7.12502
rthumb 5.50154 -75.426
lclavicle -2.59911e-014 -7.95139e-016
lhumerus -50.1897 -12.9269 92.6829
lradius 69.6958
lwrist 11.7686
lhand -25.8754 -22.1324
lfingers 7.12502
lthumb 0.666126 7.84626
rfemur -5.81243 23.6341 25.2622
rtibia -0.402118
rfoot -11.7195 -27.0405
rtoes 6.59326
lfemur 2.87619 -61.9292 -8.81988
ltibia -3.41046
lfoot -56.7724 61.3105
ltoes 25.3923
713
root -1.26985 17.6189 8.3355 13.5801 2.45539 -7.76342
lowerback 5.8266 2.63895 10.5859
upperback -10.3465 5.33021 2.58014
thorax -14.1372 1.58219 -3.92699
lowerneck -7.73756 -14.4852 -9.91442
upperneck 9.10534 -19.0563 6.06303
head 5.50576 -9.34754 1.82773
rclavicle -1.03368e-014 2.46493e-014
rhumerus 45.1238 -23.2399 -53.2893
rradius 40.0829
rwrist 41.7166
rhand -24.8263 -48.119
rfingers 7.12502
rthumb 1.67932 -78.0922
lclavicle -1.03368e-014 2.46493e-014
lhumerus -50.0566 -13.1147 92.7133
lradius 69.6737
lwrist 11.6083
lhand -25.5225 -22.2124
lfingers 7.12502
lthumb 1.00693 7.76497
rfemur -5.90548 23.4136 25.2126
rtibia -0.349974
rfoot -11.7407 -26.9102
rtoes 6.71973
lfemur 2.96244 -62.6343 -8.93386
ltibia -3.30443
lfoot -58.0632 61.4511
ltoes 25.7236
